<svg width="19" height="18" viewBox="0 0 19 18" fill="none" xmlns="http://www.w3.org/2000/svg">
<g id="Icon">
<path id="Vector" d="M9.22882 3C4.64112 3 -0.00195312 4.42708 -0.00195312 7.15385V10.8462C-0.00195312 13.5729 4.64112 15 9.22882 15C13.8165 15 18.4596 13.5729 18.4596 10.8462V7.15385C18.4596 4.42708 13.8165 3 9.22882 3ZM1.8442 10.8462V9.74123C2.42883 10.0723 3.04789 10.3385 3.69035 10.5351V12.2714C2.47928 11.7969 1.8442 11.232 1.8442 10.8462ZM12.9211 10.9828V12.8022C12.1208 12.9674 11.1977 13.0883 10.1519 13.1326V11.2865C11.0809 11.2495 12.0062 11.148 12.9211 10.9828ZM8.30574 13.1335C7.37529 13.0979 6.44922 12.9874 5.53651 12.8031V10.9837C6.42174 11.1443 7.35682 11.2486 8.30574 11.2883V13.1335ZM14.7673 12.2714V10.5351C15.4099 10.3389 16.029 10.0727 16.6134 9.74123V10.8462C16.6134 11.232 15.9793 11.7969 14.7673 12.2714ZM9.22882 9.46154C4.45005 9.46154 1.8442 7.93754 1.8442 7.15385C1.8442 6.37015 4.45005 4.84615 9.22882 4.84615C14.0076 4.84615 16.6134 6.37015 16.6134 7.15385C16.6134 7.93754 14.0076 9.46154 9.22882 9.46154Z" fill="url(#paint0_linear_259_580)"/>
</g>
<defs>
<linearGradient id="paint0_linear_259_580" x1="23.2948" y1="-0.428571" x2="7.57943" y2="19.025" gradientUnits="userSpaceOnUse">
<stop stop-color="#29F069"/>
<stop offset="1" stop-color="#E7EC03"/>
</linearGradient>
</defs>
</svg>
