<svg width="28" height="28" viewBox="0 0 28 28" fill="none" xmlns="http://www.w3.org/2000/svg">
<g id="fluent:data-pie-20-filled">
<path id="Vector" d="M11.3002 5.81513C12.0391 5.70977 12.647 6.32573 12.647 7.07137V15.1761H20.7517C21.4974 15.1761 22.1133 15.784 22.008 16.5229C21.6618 18.885 20.4353 21.0289 18.5743 22.5244C16.7133 24.0198 14.3557 24.7562 11.9744 24.5858C9.59313 24.4153 7.36439 23.3507 5.73537 21.6054C4.10636 19.8602 3.19759 17.5635 3.19141 15.1761C3.19153 12.9015 4.01135 10.7032 5.50063 8.98389C6.98991 7.26464 9.04889 6.13966 11.3002 5.81513ZM23.5371 13.8253C24.2098 13.8253 24.7892 13.3309 24.8028 12.6583L24.8041 12.4745C24.8042 11.2173 24.5535 9.97272 24.0668 8.81354C23.5801 7.65435 22.8671 6.60387 21.9695 5.72354C21.072 4.84321 20.0079 4.15071 18.8395 3.68656C17.6711 3.2224 16.4218 2.99591 15.1648 3.02034C14.4921 3.03385 13.9978 3.61469 13.9978 4.28603V12.4745C13.9978 12.8328 14.1401 13.1764 14.3934 13.4297C14.6467 13.683 14.9903 13.8253 15.3485 13.8253H23.5371Z" fill="url(#paint0_linear_259_639)"/>
</g>
<defs>
<linearGradient id="paint0_linear_259_639" x1="23.3948" y1="5.0159" x2="5.18846" y2="22.0476" gradientUnits="userSpaceOnUse">
<stop stop-color="#8EE838"/>
<stop offset="1" stop-color="#E7EC03"/>
</linearGradient>
</defs>
</svg>
