<svg width="18" height="18" viewBox="0 0 18 18" fill="none" xmlns="http://www.w3.org/2000/svg">
<g id="Icon">
<path id="Vector" d="M4.625 4.1875C4.625 3.60734 4.85547 3.05094 5.2657 2.6407C5.67594 2.23047 6.23234 2 6.8125 2C7.39266 2 7.94906 2.23047 8.3593 2.6407C8.76953 3.05094 9 3.60734 9 4.1875C9 3.60734 9.23047 3.05094 9.6407 2.6407C10.0509 2.23047 10.6073 2 11.1875 2C11.7677 2 12.3241 2.23047 12.7343 2.6407C13.1445 3.05094 13.375 3.60734 13.375 4.1875V4.19275C13.375 4.254 13.375 4.429 13.3418 4.625H15.125C15.3571 4.625 15.5796 4.71719 15.7437 4.88128C15.9078 5.04538 16 5.26794 16 5.5V6.375C16 6.60706 15.9078 6.82962 15.7437 6.99372C15.5796 7.15781 15.3571 7.25 15.125 7.25H2.875C2.64294 7.25 2.42038 7.15781 2.25628 6.99372C2.09219 6.82962 2 6.60706 2 6.375V5.5C2 5.26794 2.09219 5.04538 2.25628 4.88128C2.42038 4.71719 2.64294 4.625 2.875 4.625H4.65825C4.63514 4.4821 4.62402 4.33751 4.625 4.19275V4.1875ZM5.5595 4.625H8.125V4.1875C8.125 4.01514 8.09105 3.84447 8.02509 3.68523C7.95913 3.52599 7.86245 3.3813 7.74058 3.25942C7.6187 3.13755 7.47401 3.04087 7.31477 2.97491C7.15553 2.90895 6.98486 2.875 6.8125 2.875C6.64014 2.875 6.46947 2.90895 6.31023 2.97491C6.15099 3.04087 6.0063 3.13755 5.88442 3.25942C5.76255 3.3813 5.66587 3.52599 5.59991 3.68523C5.53395 3.84447 5.5 4.01514 5.5 4.1875C5.5 4.26187 5.50175 4.42725 5.53938 4.56375C5.54463 4.58462 5.55136 4.60508 5.5595 4.625ZM9.875 4.625H12.4405C12.4485 4.60505 12.4553 4.58459 12.4606 4.56375C12.4983 4.42725 12.5 4.26187 12.5 4.1875C12.5 3.8394 12.3617 3.50556 12.1156 3.25942C11.8694 3.01328 11.5356 2.875 11.1875 2.875C10.8394 2.875 10.5056 3.01328 10.2594 3.25942C10.0133 3.50556 9.875 3.8394 9.875 4.1875V4.625ZM15.125 8.125V14.6875C15.125 15.0356 14.9867 15.3694 14.7406 15.6156C14.4944 15.8617 14.1606 16 13.8125 16H9.875V8.125H15.125ZM4.1875 16C3.8394 16 3.50556 15.8617 3.25942 15.6156C3.01328 15.3694 2.875 15.0356 2.875 14.6875V8.125H8.125V16H4.1875Z" fill="url(#paint0_linear_259_606)"/>
</g>
<defs>
<linearGradient id="paint0_linear_259_606" x1="19.6667" y1="-2" x2="1.34766" y2="12.7398" gradientUnits="userSpaceOnUse">
<stop stop-color="#29F069"/>
<stop offset="1" stop-color="#E7EC03"/>
</linearGradient>
</defs>
</svg>
