<svg width="939" height="645" viewBox="0 0 939 645" fill="none" xmlns="http://www.w3.org/2000/svg">
<g opacity="0.1">
<circle cx="823.945" cy="52.2107" r="50.7831" fill="url(#paint0_linear_421_80)" stroke="#AAFF35" stroke-width="1.12851"/>
<path d="M834.561 57.6047C837.502 58.1347 840.306 57.2444 842.427 53.8175C845.352 49.1394 842.882 44.9379 838.444 40.9076L843.065 34.8505L839.365 32.0274L834.883 37.9026C833.921 37.1687 832.922 36.4477 831.921 35.7113L836.436 29.7928L832.736 26.9698L828.121 33.0183C826.728 32.0236 825.17 30.7944 820.704 27.359L817.702 31.2931C820.662 33.4691 822.333 34.4421 821.26 36.5849L808.626 53.1445C807.27 54.4544 806.241 53.3407 803.638 51.2723L799.541 55.0971C806.283 60.2407 806.939 60.7823 806.939 60.7823L802.985 65.9643L806.685 68.7873L810.579 63.6833C811.565 64.4762 812.553 65.2299 813.488 65.9439L809.614 71.0219L813.314 73.8449L817.268 68.663C823.713 73.0455 829.045 74.6459 834.049 69.2372C838.046 64.8971 837.429 61.1228 834.561 57.6047ZM828.693 40.1035C830.781 41.6969 837.802 46.0252 834.483 50.3753C831.317 54.526 825.155 49.0711 823.067 47.4778L828.693 40.1035ZM814.069 59.2715L820.257 51.1606C822.753 53.0647 830.924 58.2026 827.301 62.9513C823.804 67.5353 816.564 61.1755 814.069 59.2715Z" fill="white"/>
<circle cx="189.721" cy="396.408" r="50.7831" transform="rotate(-13.053 189.721 396.408)" fill="url(#paint1_linear_421_80)" stroke="#AAFF35" stroke-width="1.12851"/>
<g clip-path="url(#clip0_421_80)">
<path d="M178.73 394.611L186.438 382.251L198.805 389.963L203.29 382.77L183.731 370.573L171.538 390.126L178.73 394.611ZM163.886 402.397L168.371 395.204L175.563 399.689L171.078 406.881L163.886 402.397ZM180.642 402.857L193.003 410.565L200.714 398.198L207.909 402.679L207.907 402.683L195.71 422.243L176.157 410.05L176.147 410.043L180.642 402.857ZM203.879 393.128L208.364 385.935L215.556 390.42L211.071 397.613L203.879 393.128Z" fill="white"/>
<path d="M195.641 395.031L195.644 395.03L188.346 390.479L184.982 395.873L184.982 395.873L184.596 396.493L183.799 397.771L183.792 397.781L183.802 397.788L191.094 402.335L195.645 395.037L195.647 395.033L195.641 395.031Z" fill="white"/>
</g>
<circle cx="77.9986" cy="617.596" r="25.9558" fill="url(#paint2_linear_421_80)" stroke="#AAFF35" stroke-width="1.12851"/>
<g clip-path="url(#clip1_421_80)">
<path d="M83.2554 598.43L82.7918 599.215L76.5818 623.814L76.7685 624.126L89.8906 620.259L83.2554 598.43Z" fill="#343434"/>
<path d="M83.2564 598.43L67.0549 614.493L76.7695 624.125L79.7837 612.186L83.2564 598.43Z" fill="#8C8C8C"/>
<path d="M76.2247 626.287L76.0408 626.423L73.8287 635.186L73.8657 635.632L89.353 622.426L76.2247 626.287Z" fill="#3C3C3B"/>
<path d="M73.8642 635.631L76.2233 626.287L66.5078 616.658L73.8642 635.631Z" fill="#8C8C8C"/>
<path d="M76.769 624.125L89.8912 620.258L79.7832 612.186L76.769 624.125Z" fill="#141414"/>
<path d="M67.055 614.493L76.7696 624.125L79.7837 612.185L67.055 614.493Z" fill="#393939"/>
</g>
<circle cx="357.869" cy="81.5528" r="13.5422" transform="rotate(-20.6583 357.869 81.5528)" fill="url(#paint3_linear_421_80)" stroke="#AAFF35" stroke-width="1.12851"/>
<path d="M359.05 78.5335L358.362 76.7069L362.504 75.1449L361.455 72.3618L350.174 76.6153L351.223 79.3983L355.367 77.8361L356.055 79.6612C352.746 81.0868 350.468 82.7138 350.771 83.5192C351.075 84.3247 353.862 84.042 357.287 82.9297L359.493 88.7805L362.489 87.6509L360.283 81.7997C363.585 80.3759 365.859 78.7513 365.555 77.9466C365.252 77.1419 362.472 77.4227 359.051 78.5336L359.05 78.5335ZM360.096 81.3041L360.095 81.3026C360.013 81.3399 359.589 81.5299 358.622 81.8945C357.848 82.186 357.296 82.369 357.101 82.4312L357.102 82.4336C354.077 83.4225 351.659 83.7374 351.423 83.1124C351.188 82.4874 353.212 81.1285 356.137 79.8738L356.905 81.9133C357.105 81.8533 357.675 81.6763 358.444 81.3863C359.368 81.038 359.818 80.8241 359.9 80.7841L359.131 78.7446C362.151 77.7585 364.564 77.446 364.798 78.0687C365.033 78.6915 363.014 80.0503 360.096 81.3027" fill="white"/>
<circle cx="35.1147" cy="153.777" r="25.9558" transform="rotate(-21.2601 35.1147 153.777)" fill="url(#paint4_linear_421_80)" stroke="#AAFF35" stroke-width="1.12851"/>
<g clip-path="url(#clip2_421_80)">
<path d="M41.1915 137.487L45.6024 135.771L39.956 148.419C37.912 152.998 32.5261 155.093 27.925 153.1L15.2163 147.593L19.6272 145.877L29.2823 150.06C32.1958 151.323 35.6074 149.996 36.9023 147.095L41.1915 137.487ZM29.392 171.14L24.981 172.856L30.6618 160.13C32.7057 155.551 38.0916 153.456 42.6928 155.449L55.4806 160.989L51.0697 162.706L41.3355 158.489C38.422 157.226 35.0104 158.553 33.7154 161.454L29.392 171.14Z" fill="white"/>
</g>
<circle cx="549.716" cy="40.9251" r="25.9558" transform="rotate(10.9571 549.716 40.9251)" fill="url(#paint5_linear_421_80)" stroke="#AAFF35" stroke-width="1.12851"/>
<path d="M560.141 54.7526L555.365 29.5205C555.074 28.2074 554.408 27.4654 553.378 27.2661L552.555 27.1067C551.526 26.9074 550.631 27.3472 549.871 28.4569L543.842 37.88L540.776 37.2864C539.859 37.1165 538.965 37.7404 538.772 38.6992L538.767 38.7214C538.59 39.6756 539.185 40.5955 540.099 40.7801L541.746 41.0989L535.994 50.0777C535.882 50.2782 535.796 50.4915 535.752 50.7205C535.646 51.2671 535.726 51.7271 535.953 52.1158C536.18 52.5045 536.567 52.7481 537.092 52.8498C537.442 52.9097 537.797 52.8635 538.115 52.7029C538.454 52.5464 538.72 52.2761 538.952 51.9531L545.339 41.7868L548.291 42.3585C549.209 42.5284 550.103 41.9045 550.296 40.9457L550.304 40.9013C550.481 39.9471 549.886 39.0273 548.972 38.8426L547.396 38.5376L552.279 30.7392L556.698 55.3811C556.793 55.7673 556.939 56.1174 557.195 56.3893C557.431 56.6571 557.75 56.8338 558.089 56.9072C558.614 57.0089 559.057 56.9261 559.42 56.6514C559.782 56.3767 560.021 55.9786 560.127 55.432C560.177 55.2118 560.186 54.9759 560.141 54.7526Z" fill="white"/>
<circle cx="901.814" cy="254.214" r="25.9558" transform="rotate(-35.3625 901.814 254.214)" fill="url(#paint6_linear_421_80)" stroke="#AAFF35" stroke-width="1.12851"/>
<path d="M907.36 253.256C905.653 250.85 903.625 251.049 900.496 252.753C898.241 253.94 897.439 253.682 896.756 252.72C896.073 251.758 896.32 250.652 897.694 249.677C898.93 248.8 899.91 248.725 900.985 249.512C901.2 249.669 901.504 249.661 901.71 249.514L902.808 248.735C903.083 248.54 903.143 248.187 902.948 247.912L902.899 247.843C901.551 246.526 899.485 246.235 897.808 247.219L896.638 245.569C896.442 245.294 896.09 245.234 895.698 245.409L894.668 246.14C894.393 246.335 894.333 246.687 894.508 247.08L895.63 248.661C893.765 250.398 893.436 252.699 894.655 254.417C896.265 256.686 898.273 256.604 901.401 254.901C903.568 253.88 904.479 253.854 905.26 254.953C906.04 256.053 905.615 257.492 904.31 258.418C902.525 259.685 901.37 259.368 900.432 258.483C900.168 258.257 899.865 258.265 899.659 258.411L898.491 259.24C898.216 259.435 898.157 259.787 898.352 260.062L898.401 260.131C899.895 261.655 901.872 262.112 904.382 260.847L905.553 262.497C905.748 262.772 906.1 262.832 906.493 262.657L907.523 261.926C907.797 261.731 907.857 261.378 907.682 260.986L906.511 259.336C908.328 257.53 908.677 255.112 907.36 253.256Z" fill="white"/>
<path d="M904.847 265.928C898.104 267.802 891.081 263.739 889.298 256.997C888.269 253.36 888.97 249.535 891.056 246.495C891.234 246.161 891.224 245.856 890.978 245.51L890.291 244.542C890.095 244.265 889.81 244.155 889.486 244.282C889.417 244.331 889.279 244.428 889.259 244.546C884.192 251.262 885.57 260.787 892.297 265.891C896.285 268.885 901.355 269.758 906.094 268.267C906.467 268.21 906.644 267.876 906.517 267.551C906.537 267.433 906.487 267.363 906.389 267.225L905.702 266.257C905.555 266.049 905.152 265.919 904.847 265.928ZM896.832 239.172C896.458 239.23 896.281 239.563 896.408 239.889C896.389 240.007 896.438 240.076 896.536 240.214L897.223 241.182C897.419 241.459 897.822 241.589 898.127 241.581C904.87 239.707 911.894 243.769 913.676 250.511C914.705 254.149 914.004 257.974 911.918 261.014C911.741 261.348 911.75 261.653 911.996 261.999L912.683 262.967C912.879 263.243 913.164 263.353 913.488 263.227C913.557 263.178 913.695 263.08 913.715 262.962C918.782 256.247 917.404 246.722 910.677 241.617C906.64 238.555 901.501 237.73 896.832 239.172Z" fill="white"/>
<circle cx="875.554" cy="586.822" r="25.9558" transform="rotate(-45.8146 875.554 586.822)" fill="url(#paint7_linear_421_80)" stroke="#AAFF35" stroke-width="1.12851"/>
<g clip-path="url(#clip3_421_80)">
<path d="M882.753 573.93L879.704 573.926L871.384 573.937L868.334 573.933L860.874 586.566L862.349 589.234L866.414 596.559L867.89 599.228L870.939 599.231L879.203 599.187L882.252 599.191L889.712 586.558L888.237 583.889L884.228 576.598L882.753 573.93ZM866.973 586.572L871.285 579.271L879.605 579.261L883.614 586.552L879.302 593.853L870.981 593.863L866.973 586.572Z" fill="white"/>
</g>
</g>
<defs>
<linearGradient id="paint0_linear_421_80" x1="823.945" y1="0.863281" x2="823.945" y2="103.558" gradientUnits="userSpaceOnUse">
<stop stop-color="#0F430E"/>
<stop offset="1" stop-color="#247D15"/>
</linearGradient>
<linearGradient id="paint1_linear_421_80" x1="176.917" y1="344.206" x2="199.099" y2="448.396" gradientUnits="userSpaceOnUse">
<stop stop-color="#073F07"/>
<stop offset="1" stop-color="#2E821F"/>
</linearGradient>
<linearGradient id="paint2_linear_421_80" x1="77.9986" y1="591.076" x2="77.9986" y2="644.116" gradientUnits="userSpaceOnUse">
<stop stop-color="#134908"/>
<stop offset="1" stop-color="#2D8617"/>
</linearGradient>
<linearGradient id="paint3_linear_421_80" x1="357.869" y1="67.4464" x2="357.869" y2="95.6592" gradientUnits="userSpaceOnUse">
<stop stop-color="#1E3723"/>
<stop offset="1" stop-color="#1A5B25"/>
</linearGradient>
<linearGradient id="paint4_linear_421_80" x1="35.1147" y1="127.257" x2="35.1147" y2="180.297" gradientUnits="userSpaceOnUse">
<stop stop-color="#175733"/>
<stop offset="1" stop-color="#0AD044"/>
</linearGradient>
<linearGradient id="paint5_linear_421_80" x1="549.716" y1="14.405" x2="549.716" y2="67.4451" gradientUnits="userSpaceOnUse">
<stop stop-color="#0C3B13"/>
<stop offset="1" stop-color="#106A17"/>
</linearGradient>
<linearGradient id="paint6_linear_421_80" x1="901.814" y1="227.694" x2="901.814" y2="280.735" gradientUnits="userSpaceOnUse">
<stop stop-color="#1B470D"/>
<stop offset="1" stop-color="#347A19"/>
</linearGradient>
<linearGradient id="paint7_linear_421_80" x1="902.397" y1="579.254" x2="847.137" y2="592.834" gradientUnits="userSpaceOnUse">
<stop stop-color="#22460C"/>
<stop offset="1" stop-color="#408415"/>
</linearGradient>
<clipPath id="clip0_421_80">
<rect width="53.0402" height="53.0402" fill="white" transform="translate(157.896 376.562) rotate(-13.053)"/>
</clipPath>
<clipPath id="clip1_421_80">
<rect width="38.3695" height="38.3695" fill="white" transform="translate(64.6582 593.734) rotate(14.1685)"/>
</clipPath>
<clipPath id="clip2_421_80">
<rect width="32.7269" height="27.0843" fill="white" transform="translate(15.1602 147.615) rotate(-21.2601)"/>
</clipPath>
<clipPath id="clip3_421_80">
<rect width="24.8273" height="29.3414" fill="white" transform="translate(872.064 567.617) rotate(30.5645)"/>
</clipPath>
</defs>
</svg>
