<svg width="24" height="24" viewBox="0 0 24 24" fill="none" xmlns="http://www.w3.org/2000/svg">
<g id="material-symbols:energy-savings-leaf">
<g id="Group">
<path id="Vector" d="M14.2168 5.48875C15.2293 7.12875 16.1955 9.77625 16.4393 14.0125L18.3143 16.3C18.7573 16.8543 18.9984 17.5429 18.998 18.2525V22.375C18.998 22.5062 18.9568 22.634 18.8801 22.7404C18.8034 22.8469 18.6951 22.9264 18.5707 22.9679C18.4462 23.0094 18.3119 23.0107 18.1867 22.9716C18.0615 22.9325 17.9518 22.8549 17.873 22.75L16.4668 20.875C16.2593 20.5975 15.9418 20.375 15.5268 20.1625C15.2593 20.0275 15.0093 19.9225 14.743 19.81L14.498 19.7062C13.623 20.2412 12.5605 20.5 11.498 20.5C10.4355 20.5 9.37305 20.2412 8.49805 19.7062C8.41305 19.7437 8.3318 19.7775 8.25055 19.8113C7.9868 19.9225 7.7368 20.0275 7.4693 20.1625C7.0543 20.375 6.7368 20.5975 6.5293 20.875L5.12305 22.75C5.04434 22.8549 4.93461 22.9325 4.8094 22.9716C4.68419 23.0107 4.54985 23.0094 4.4254 22.9679C4.30096 22.9264 4.19272 22.8469 4.11602 22.7404C4.03932 22.634 3.99805 22.5062 3.99805 22.375V18.2525C3.99803 17.5428 4.23962 16.8542 4.68305 16.3L4.68805 16.2938L6.5593 14.0125C6.80555 9.85875 7.77055 7.22 8.7768 5.5675C9.3593 4.60875 9.9518 3.99 10.4143 3.605C10.6471 3.40971 10.8988 3.23803 11.1655 3.0925C11.2667 3.03385 11.3811 3.002 11.498 3C11.6243 3 11.7105 3.03375 11.8105 3.08C11.8568 3.10125 11.918 3.13125 11.9918 3.17375C12.1393 3.25625 12.338 3.3825 12.5705 3.5675C13.0368 3.93875 13.633 4.54125 14.2168 5.48875ZM13.373 10.5C13.373 9.11875 12.533 8 11.498 8C10.463 8 9.62305 9.11875 9.62305 10.5C9.62305 11.8813 10.463 13 11.498 13C12.533 13 13.373 11.8813 13.373 10.5Z" fill="url(#paint0_linear_259_689)"/>
<path id="Vector_2" d="M11.4972 21.1249C12.1222 21.1249 12.7459 21.0674 13.3459 20.9512L11.9972 22.7499C11.939 22.8275 11.8635 22.8905 11.7767 22.9339C11.6899 22.9773 11.5942 22.9999 11.4972 22.9999C11.4002 22.9999 11.3045 22.9773 11.2177 22.9339C11.1309 22.8905 11.0554 22.8275 10.9972 22.7499L9.64844 20.9512C10.2484 21.0674 10.8734 21.1249 11.4972 21.1249Z" fill="url(#paint1_linear_259_689)"/>
</g>
</g>
<defs>
<linearGradient id="paint0_linear_259_689" x1="18.0199" y1="4.85013" x2="2.13174" y2="15.9865" gradientUnits="userSpaceOnUse">
<stop stop-color="#8EE838"/>
<stop offset="1" stop-color="#E7EC03"/>
</linearGradient>
<linearGradient id="paint1_linear_259_689" x1="13.1048" y1="21.1407" x2="11.5858" y2="23.7028" gradientUnits="userSpaceOnUse">
<stop stop-color="#8EE838"/>
<stop offset="1" stop-color="#E7EC03"/>
</linearGradient>
</defs>
</svg>
