<svg width="31" height="30" viewBox="0 0 31 30" fill="none" xmlns="http://www.w3.org/2000/svg">
<g id="fluent:data-pie-20-filled">
<path id="Vector" d="M18.2367 7.73763C19.3505 9.54163 20.4133 12.4539 20.6815 17.1138L22.744 19.63C23.2312 20.2398 23.4965 20.9972 23.4961 21.7778V26.3125C23.4961 26.4568 23.4507 26.5974 23.3663 26.7145C23.282 26.8315 23.1629 26.9191 23.026 26.9647C22.8891 27.0103 22.7413 27.0118 22.6036 26.9687C22.4659 26.9257 22.3452 26.8404 22.2586 26.725L20.7117 24.6625C20.4835 24.3573 20.1342 24.1125 19.6777 23.8787C19.3835 23.7302 19.1085 23.6147 18.8156 23.491L18.5461 23.3769C17.5836 23.9654 16.4148 24.25 15.2461 24.25C14.0773 24.25 12.9086 23.9654 11.9461 23.3769C11.8526 23.4181 11.7632 23.4552 11.6738 23.4924C11.3837 23.6147 11.1087 23.7302 10.8145 23.8787C10.358 24.1125 10.0087 24.3573 9.78047 24.6625L8.23359 26.725C8.14702 26.8404 8.02631 26.9257 7.88858 26.9687C7.75085 27.0118 7.60308 27.0103 7.46619 26.9647C7.3293 26.9191 7.21024 26.8315 7.12586 26.7145C7.04149 26.5974 6.99609 26.4568 6.99609 26.3125V21.7778C6.99608 20.997 7.26182 20.2396 7.74959 19.63L7.75509 19.6231L9.81347 17.1138C10.0843 12.5446 11.1458 9.642 12.2527 7.82425C12.8935 6.76962 13.5452 6.089 14.054 5.6655C14.3101 5.45068 14.5869 5.26183 14.8803 5.10175C14.9916 5.03723 15.1175 5.00221 15.2461 5C15.385 5 15.4798 5.03713 15.5898 5.088C15.6407 5.11138 15.7081 5.14437 15.7892 5.19113C15.9515 5.28187 16.1701 5.42075 16.4258 5.62425C16.9387 6.03262 17.5946 6.69538 18.2367 7.73763ZM17.3086 13.25C17.3086 11.7306 16.3846 10.5 15.2461 10.5C14.1076 10.5 13.1836 11.7306 13.1836 13.25C13.1836 14.7694 14.1076 16 15.2461 16C16.3846 16 17.3086 14.7694 17.3086 13.25Z" fill="url(#paint0_linear_277_1212)"/>
</g>
<defs>
<linearGradient id="paint0_linear_277_1212" x1="22.4202" y1="7.03514" x2="4.94316" y2="19.2851" gradientUnits="userSpaceOnUse">
<stop stop-color="#29F069"/>
<stop offset="1" stop-color="#E7EC03"/>
</linearGradient>
</defs>
</svg>
