<svg width="24" height="24" viewBox="0 0 24 24" fill="none" xmlns="http://www.w3.org/2000/svg">
<g id="material-symbols:energy-savings-leaf">
<path id="Vector" d="M10.6762 17.8656L15.8512 13.2531C16.0199 13.1031 16.0668 12.925 15.9918 12.7188C15.9168 12.5125 15.7668 12.3906 15.5418 12.3531L11.4918 11.9594L13.9105 8.6125C13.9668 8.51875 13.9998 8.4295 14.0095 8.34475C14.0193 8.26 13.9863 8.1805 13.9105 8.10625C13.8355 8.0125 13.7418 7.9705 13.6293 7.98025C13.5168 7.99 13.4137 8.032 13.3199 8.10625L8.17305 12.7188C8.0043 12.8687 7.95742 13.0469 8.03242 13.2531C8.10742 13.4594 8.25742 13.5813 8.48242 13.6188L12.5324 14.0125L10.0855 17.3594C10.0293 17.4531 10.0012 17.542 10.0012 17.626C10.0012 17.71 10.0387 17.7899 10.1137 17.8656C10.1887 17.9406 10.2779 17.9781 10.3814 17.9781C10.4849 17.9781 10.5832 17.9406 10.6762 17.8656ZM11.998 22C10.948 22 9.95917 21.8361 9.03142 21.5084C8.10367 21.1806 7.25505 20.7164 6.48555 20.1156L4.93867 21.6625C4.82617 21.775 4.6998 21.8594 4.55955 21.9156C4.4193 21.9719 4.2738 22 4.12305 22C3.8043 22 3.5373 21.892 3.32205 21.676C3.1068 21.46 2.9988 21.193 2.99805 20.875C2.99805 20.725 3.02617 20.5799 3.08242 20.4396C3.13867 20.2994 3.22305 20.1726 3.33555 20.0594L4.88242 18.5125C4.28242 17.7437 3.81855 16.8955 3.4908 15.9677C3.16305 15.04 2.9988 14.0507 2.99805 13C2.99805 10.4875 3.86992 8.35937 5.61367 6.61562C7.35742 4.87187 9.48555 4 11.998 4H20.998V13C20.998 15.5125 20.1262 17.6406 18.3824 19.3844C16.6387 21.1281 14.5105 22 11.998 22Z" fill="url(#paint0_linear_259_664)"/>
</g>
<defs>
<linearGradient id="paint0_linear_259_664" x1="19.8243" y1="5.66512" x2="4.6473" y2="19.849" gradientUnits="userSpaceOnUse">
<stop stop-color="#8EE838"/>
<stop offset="1" stop-color="#E7EC03"/>
</linearGradient>
</defs>
</svg>
