<svg width="32" height="32" viewBox="0 0 32 32" fill="none" xmlns="http://www.w3.org/2000/svg">
<g id="COCO/Line/Arrow - Swap">
<rect x="0.5" y="0.5" width="31" height="31" rx="15.5" fill="#1C221C"/>
<rect x="0.5" y="0.5" width="31" height="31" rx="15.5" stroke="url(#paint0_linear_377_1913)"/>
<g id="Vector" filter="url(#filter0_f_377_1913)">
<path id="Vector_2" d="M8 13.8182L22.475 13.8182C23.0031 13.8182 23.2486 13.1631 22.8505 12.816L17.3262 8" stroke="url(#paint1_linear_377_1913)" stroke-opacity="0.3" stroke-width="1.4" stroke-linecap="round" stroke-linejoin="round"/>
<path id="Vector_3" d="M24 18.1818L9.52504 18.1818C8.99689 18.1818 8.75143 18.8369 9.14953 19.184L14.6738 24" stroke="url(#paint2_linear_377_1913)" stroke-opacity="0.3" stroke-width="1.4" stroke-linecap="round" stroke-linejoin="round"/>
</g>
<path id="Vector_4" d="M8 13.8182L22.475 13.8182C23.0031 13.8182 23.2486 13.1631 22.8505 12.816L17.3262 8M24 18.1818L9.52504 18.1818C8.99689 18.1818 8.75143 18.8369 9.14953 19.184L14.6738 24" stroke="url(#paint3_linear_377_1913)" stroke-width="1.4" stroke-linecap="round" stroke-linejoin="round"/>
</g>
<defs>
<filter id="filter0_f_377_1913" x="3.30078" y="3.2998" width="25.3984" height="25.4004" filterUnits="userSpaceOnUse" color-interpolation-filters="sRGB">
<feFlood flood-opacity="0" result="BackgroundImageFix"/>
<feBlend mode="normal" in="SourceGraphic" in2="BackgroundImageFix" result="shape"/>
<feGaussianBlur stdDeviation="2" result="effect1_foregroundBlur_377_1913"/>
</filter>
<linearGradient id="paint0_linear_377_1913" x1="16" y1="0" x2="16" y2="32" gradientUnits="userSpaceOnUse">
<stop stop-color="#E7EC03"/>
<stop offset="1" stop-color="#29F069"/>
</linearGradient>
<linearGradient id="paint1_linear_377_1913" x1="16" y1="8" x2="16" y2="13.8182" gradientUnits="userSpaceOnUse">
<stop stop-color="#8EE838"/>
<stop offset="1" stop-color="#E7EC03"/>
</linearGradient>
<linearGradient id="paint2_linear_377_1913" x1="16" y1="24" x2="16" y2="18.1818" gradientUnits="userSpaceOnUse">
<stop stop-color="#8EE838"/>
<stop offset="1" stop-color="#E7EC03"/>
</linearGradient>
<linearGradient id="paint3_linear_377_1913" x1="21.5" y1="11" x2="8" y2="21.5" gradientUnits="userSpaceOnUse">
<stop stop-color="#E7EC03"/>
<stop offset="1" stop-color="#29F069"/>
</linearGradient>
</defs>
</svg>
