<svg width="40" height="40" viewBox="0 0 40 40" fill="none" xmlns="http://www.w3.org/2000/svg">
<g id="sprout 2" clip-path="url(#clip0_219_5063)">
<g id="Icon" filter="url(#filter0_f_219_5063)">
<path d="M16.4313 19.6887L19.3758 22.6332L25.2649 16.7441M34.0985 19.6887C34.0985 27.0067 28.1661 32.9391 20.8481 32.9391C13.5301 32.9391 7.59766 27.0067 7.59766 19.6887C7.59766 12.3706 13.5301 6.43823 20.8481 6.43823C28.1661 6.43823 34.0985 12.3706 34.0985 19.6887Z" stroke="url(#paint0_linear_219_5063)" stroke-opacity="0.5" stroke-width="2.20357" stroke-linecap="round" stroke-linejoin="round"/>
</g>
<path id="Icon_2" d="M16.4313 19.6887L19.3758 22.6332L25.2649 16.7441M34.0985 19.6887C34.0985 27.0067 28.1661 32.9391 20.8481 32.9391C13.5301 32.9391 7.59766 27.0067 7.59766 19.6887C7.59766 12.3706 13.5301 6.43823 20.8481 6.43823C28.1661 6.43823 34.0985 12.3706 34.0985 19.6887Z" stroke="url(#paint1_linear_219_5063)" stroke-width="2.20357" stroke-linecap="round" stroke-linejoin="round"/>
</g>
<defs>
<filter id="filter0_f_219_5063" x="1.857" y="0.69733" width="37.9813" height="37.9825" filterUnits="userSpaceOnUse" color-interpolation-filters="sRGB">
<feFlood flood-opacity="0" result="BackgroundImageFix"/>
<feBlend mode="normal" in="SourceGraphic" in2="BackgroundImageFix" result="shape"/>
<feGaussianBlur stdDeviation="2.31955" result="effect1_foregroundBlur_219_5063"/>
</filter>
<linearGradient id="paint0_linear_219_5063" x1="37.1719" y1="18.036" x2="4.69822" y2="26.1544" gradientUnits="userSpaceOnUse">
<stop stop-color="#E7EC03"/>
<stop offset="1" stop-color="#29F069"/>
</linearGradient>
<linearGradient id="paint1_linear_219_5063" x1="37.1719" y1="18.036" x2="4.69822" y2="26.1544" gradientUnits="userSpaceOnUse">
<stop stop-color="#E7EC03"/>
<stop offset="1" stop-color="#29F069"/>
</linearGradient>
<clipPath id="clip0_219_5063">
<rect width="39.5513" height="39.5513" fill="white"/>
</clipPath>
</defs>
</svg>
