<svg width="28" height="28" viewBox="0 0 28 28" fill="none" xmlns="http://www.w3.org/2000/svg">
<g id="sprout 2" clip-path="url(#clip0_247_858)">
<g id="Group 1000006340">
<g id="Vector" filter="url(#filter0_d_247_858)">
<path d="M4.66667 19L2 4.33333L9.33333 11L14 3L18.6667 11L26 4.33333L23.3333 19H4.66667ZM23.3333 23C23.3333 23.8 22.8 24.3333 22 24.3333H6C5.2 24.3333 4.66667 23.8 4.66667 23V21.6667H23.3333V23Z" fill="url(#paint0_linear_247_858)" fill-opacity="0.4" shape-rendering="crispEdges"/>
</g>
<path id="Vector_2" d="M4.66667 19L2 4.33333L9.33333 11L14 3L18.6667 11L26 4.33333L23.3333 19H4.66667ZM23.3333 23C23.3333 23.8 22.8 24.3333 22 24.3333H6C5.2 24.3333 4.66667 23.8 4.66667 23V21.6667H23.3333V23Z" fill="url(#paint1_linear_247_858)"/>
</g>
</g>
<defs>
<filter id="filter0_d_247_858" x="-2" y="3" width="32" height="29.333" filterUnits="userSpaceOnUse" color-interpolation-filters="sRGB">
<feFlood flood-opacity="0" result="BackgroundImageFix"/>
<feColorMatrix in="SourceAlpha" type="matrix" values="0 0 0 0 0 0 0 0 0 0 0 0 0 0 0 0 0 0 127 0" result="hardAlpha"/>
<feOffset dy="4"/>
<feGaussianBlur stdDeviation="2"/>
<feComposite in2="hardAlpha" operator="out"/>
<feColorMatrix type="matrix" values="0 0 0 0 0 0 0 0 0 0 0 0 0 0 0 0 0 0 0.25 0"/>
<feBlend mode="normal" in2="BackgroundImageFix" result="effect1_dropShadow_247_858"/>
<feBlend mode="normal" in="SourceGraphic" in2="effect1_dropShadow_247_858" result="shape"/>
</filter>
<linearGradient id="paint0_linear_247_858" x1="3.47683" y1="26.1506" x2="25.8433" y2="4.53618" gradientUnits="userSpaceOnUse">
<stop stop-color="#E7EC03"/>
<stop offset="1" stop-color="#8EE838"/>
</linearGradient>
<linearGradient id="paint1_linear_247_858" x1="3" y1="28" x2="33.0505" y2="-0.47434" gradientUnits="userSpaceOnUse">
<stop stop-color="#E7EC03"/>
<stop offset="0.994792" stop-color="#FFAF1D"/>
<stop offset="1" stop-color="#FFAF1D"/>
</linearGradient>
<clipPath id="clip0_247_858">
<rect width="28" height="28" fill="white"/>
</clipPath>
</defs>
</svg>
