<svg width="32" height="32" viewBox="0 0 32 32" fill="none" xmlns="http://www.w3.org/2000/svg">
<g id="COCO/Line/Arrow - Swap">
<rect x="0.5" y="31.5" width="31" height="31" rx="15.5" transform="rotate(-90 0.5 31.5)" fill="#1C221C"/>
<rect x="0.5" y="31.5" width="31" height="31" rx="15.5" transform="rotate(-90 0.5 31.5)" stroke="url(#paint0_linear_377_1928)"/>
<g id="Vector">
<g id="Icon" filter="url(#filter0_f_377_1928)">
<path fill-rule="evenodd" clip-rule="evenodd" d="M15.75 9C16.4956 9 17.1 9.60442 17.1 10.35V14.4L21.15 14.4C21.8956 14.4 22.5 15.0044 22.5 15.75C22.5 16.4956 21.8956 17.1 21.15 17.1H17.1V21.15C17.1 21.8956 16.4956 22.5 15.75 22.5C15.0044 22.5 14.4 21.8956 14.4 21.15V17.1H10.35C9.60442 17.1 9 16.4956 9 15.75C9 15.0044 9.60442 14.4 10.35 14.4H14.4V10.35C14.4 9.60442 15.0044 9 15.75 9Z" fill="url(#paint1_linear_377_1928)" fill-opacity="0.3"/>
</g>
</g>
<g id="Vector_2">
<path id="Icon_2" fill-rule="evenodd" clip-rule="evenodd" d="M15.75 9C16.4956 9 17.1 9.60442 17.1 10.35V14.4L21.15 14.4C21.8956 14.4 22.5 15.0044 22.5 15.75C22.5 16.4956 21.8956 17.1 21.15 17.1H17.1V21.15C17.1 21.8956 16.4956 22.5 15.75 22.5C15.0044 22.5 14.4 21.8956 14.4 21.15V17.1H10.35C9.60442 17.1 9 16.4956 9 15.75C9 15.0044 9.60442 14.4 10.35 14.4H14.4V10.35C14.4 9.60442 15.0044 9 15.75 9Z" fill="url(#paint2_linear_377_1928)"/>
</g>
</g>
<defs>
<filter id="filter0_f_377_1928" x="5" y="5" width="21.5" height="21.5" filterUnits="userSpaceOnUse" color-interpolation-filters="sRGB">
<feFlood flood-opacity="0" result="BackgroundImageFix"/>
<feBlend mode="normal" in="SourceGraphic" in2="BackgroundImageFix" result="shape"/>
<feGaussianBlur stdDeviation="2" result="effect1_foregroundBlur_377_1928"/>
</filter>
<linearGradient id="paint0_linear_377_1928" x1="16" y1="32" x2="6" y2="61" gradientUnits="userSpaceOnUse">
<stop stop-color="#E7EC03"/>
<stop offset="1" stop-color="#29F069"/>
</linearGradient>
<linearGradient id="paint1_linear_377_1928" x1="15.75" y1="9" x2="15.75" y2="22.5" gradientUnits="userSpaceOnUse">
<stop stop-color="#29F069"/>
<stop offset="1" stop-color="#E7EC03"/>
</linearGradient>
<linearGradient id="paint2_linear_377_1928" x1="26" y1="24" x2="11" y2="15.5" gradientUnits="userSpaceOnUse">
<stop stop-color="#29F069"/>
<stop offset="1" stop-color="#E7EC03"/>
</linearGradient>
</defs>
</svg>
