<svg width="32" height="32" viewBox="0 0 32 32" fill="none" xmlns="http://www.w3.org/2000/svg">
<g id="COCO/Line/Arrow - Swap">
<rect x="0.5" y="31.5" width="31" height="31" rx="15.5" transform="rotate(-90 0.5 31.5)" fill="#1C221C"/>
<rect x="0.5" y="31.5" width="31" height="31" rx="15.5" transform="rotate(-90 0.5 31.5)" stroke="url(#paint0_linear_219_4523)"/>
<g id="Vector" filter="url(#filter0_f_219_4523)">
<path id="Vector_2" d="M13.8182 24L13.8182 9.52504C13.8182 8.99689 13.1631 8.75143 12.816 9.14953L8 14.6738" stroke="url(#paint1_linear_219_4523)" stroke-opacity="0.3" stroke-width="1.4" stroke-linecap="round" stroke-linejoin="round"/>
<path id="Vector_3" d="M18.1818 8L18.1818 22.475C18.1818 23.0031 18.8369 23.2486 19.184 22.8505L24 17.3262" stroke="url(#paint2_linear_219_4523)" stroke-opacity="0.3" stroke-width="1.4" stroke-linecap="round" stroke-linejoin="round"/>
</g>
<path id="Vector_4" d="M13.8182 24L13.8182 9.52504C13.8182 8.99689 13.1631 8.75143 12.816 9.14953L8 14.6738M18.1818 8L18.1818 22.475C18.1818 23.0031 18.8369 23.2486 19.184 22.8505L24 17.3262" stroke="url(#paint3_linear_219_4523)" stroke-width="1.4" stroke-linecap="round" stroke-linejoin="round"/>
</g>
<defs>
<filter id="filter0_f_219_4523" x="3.30078" y="3.30005" width="25.3984" height="25.3999" filterUnits="userSpaceOnUse" color-interpolation-filters="sRGB">
<feFlood flood-opacity="0" result="BackgroundImageFix"/>
<feBlend mode="normal" in="SourceGraphic" in2="BackgroundImageFix" result="shape"/>
<feGaussianBlur stdDeviation="2" result="effect1_foregroundBlur_219_4523"/>
</filter>
<linearGradient id="paint0_linear_219_4523" x1="16" y1="32" x2="6" y2="61" gradientUnits="userSpaceOnUse">
<stop stop-color="#E7EC03"/>
<stop offset="1" stop-color="#29F069"/>
</linearGradient>
<linearGradient id="paint1_linear_219_4523" x1="8" y1="16" x2="13.8182" y2="16" gradientUnits="userSpaceOnUse">
<stop stop-color="#8EE838"/>
<stop offset="1" stop-color="#E7EC03"/>
</linearGradient>
<linearGradient id="paint2_linear_219_4523" x1="24" y1="16" x2="18.1818" y2="16" gradientUnits="userSpaceOnUse">
<stop stop-color="#8EE838"/>
<stop offset="1" stop-color="#E7EC03"/>
</linearGradient>
<linearGradient id="paint3_linear_219_4523" x1="11" y1="10.5" x2="21.5" y2="24" gradientUnits="userSpaceOnUse">
<stop stop-color="#E7EC03"/>
<stop offset="1" stop-color="#29F069"/>
</linearGradient>
</defs>
</svg>
