<svg width="30" height="30" viewBox="0 0 30 30" fill="none" xmlns="http://www.w3.org/2000/svg">
<g id="Bitcoin Plus (Xbc)">
<ellipse id="Bitcoin Plus (Xbc)_2" cx="15.0021" cy="15" rx="15.0021" ry="15" fill="#F7931A"/>
<path id="Bitcoin Plus (Xbc)_3" fill-rule="evenodd" clip-rule="evenodd" d="M17.5758 14.9583C18.4839 14.7381 19.1708 14.1207 19.3603 12.8502C19.6216 11.1147 18.3439 10.1896 16.5931 9.57786L17.1745 7.22596L15.7867 6.87774L15.2202 9.16752C14.8562 9.07529 14.482 8.98871 14.1096 8.904L14.6798 6.59822L13.293 6.25L12.7115 8.60096C12.4091 8.53226 12.1123 8.46355 11.8249 8.39108L11.8268 8.3845L9.91352 7.90264L9.53554 9.43104C9.53554 9.43104 10.565 9.66915 10.5426 9.68326C11.1053 9.82538 11.2052 10.2075 11.1865 10.5115L10.5239 13.1909C10.5731 13.2033 10.6214 13.219 10.6685 13.2379L10.5211 13.2012L9.5934 16.9545C9.5234 17.1305 9.34794 17.3949 8.9541 17.298C8.9681 17.3178 7.94615 17.0439 7.94615 17.0439L7.24805 18.6834L9.05396 19.1379C9.25742 19.1892 9.45814 19.2419 9.65695 19.2941L9.65709 19.2941C9.78654 19.3281 9.91518 19.3618 10.0432 19.3948L9.45527 21.774L10.8403 22.1223L11.4226 19.7694C11.7899 19.8698 12.1583 19.9662 12.5277 20.0584L11.9481 22.4018L13.335 22.75L13.9229 20.3765C16.2897 20.8235 18.0723 20.6277 18.8339 18.4189C19.4471 16.6401 18.818 15.62 17.5758 14.9583ZM23.8602 20.5458L24.3689 18.4913L26.4062 19.0042L26.745 17.6339L24.7077 17.1219L25.2154 15.0674L23.8574 14.7258L23.3488 16.7803L21.3114 16.2683L20.9726 17.6377L23.01 18.1497L22.5023 20.2051L23.8602 20.5458ZM16.1615 17.4476C16.5735 15.781 14.177 15.2399 13.0049 14.9752L13.0049 14.9752C12.8731 14.9455 12.7568 14.9192 12.6617 14.8952L11.8843 18.0452C11.9622 18.0647 12.0536 18.0891 12.1558 18.1163C13.2885 18.4182 15.7611 19.0772 16.1634 17.4467L16.1615 17.4476ZM14.0119 10.6602C14.9891 10.8776 16.9907 11.3229 16.6165 12.8399C16.249 14.3237 14.1861 13.7665 13.2439 13.512C13.1595 13.4892 13.084 13.4688 13.0196 13.4526L13.7261 10.5943C13.8052 10.6142 13.9021 10.6358 14.0119 10.6602Z" fill="white"/>
</g>
</svg>
