<svg width="30" height="30" viewBox="0 0 30 30" fill="none" xmlns="http://www.w3.org/2000/svg">
<g id="Vector">
<path d="M15 30C23.2843 30 30 23.2843 30 15C30 6.71573 23.2843 0 15 0C6.71573 0 0 6.71573 0 15C0 23.2843 6.71573 30 15 30Z" fill="#2A5ADA"/>
<path d="M15 5.625L13.3134 6.61406L8.71875 9.32344L7.03125 10.3125V19.6875L8.71781 20.6766L13.3556 23.3859L15.0422 24.375L16.7288 23.3859L21.2822 20.6766L22.9688 19.6875V10.3125L21.2822 9.32344L16.6866 6.61406L15 5.625ZM10.4044 17.7094V12.2906L15 9.58125L19.5956 12.2906V17.7094L15 20.4188L10.4044 17.7094Z" fill="white"/>
</g>
</svg>
