<svg width="30" height="30" viewBox="0 0 30 30" fill="none" xmlns="http://www.w3.org/2000/svg">
<g id="Layer x0020 1">
<path id="Vector" d="M15 0C23.285 0 30 6.71632 30 15C30 23.285 23.285 30 15 30C6.71632 30 0 23.2844 0 15C0 6.71632 6.71632 0 15 0Z" fill="#F5AC37"/>
<path id="Vector_2" d="M15.5557 16.0597H21.2554C21.3769 16.0597 21.4343 16.0597 21.4431 15.9004C21.4897 15.3206 21.4897 14.7374 21.4431 14.1569C21.4431 14.0441 21.3871 13.9976 21.2649 13.9976H9.9214C9.78099 13.9976 9.74319 14.0441 9.74319 14.1758V15.8444C9.74319 16.0597 9.74319 16.0597 9.96797 16.0597H15.5557ZM20.8066 12.0475C20.8228 12.0049 20.8228 11.9584 20.8066 11.9165C20.7114 11.7093 20.5987 11.5115 20.4677 11.3259C20.2706 11.0086 20.0384 10.7163 19.7738 10.4538C19.6489 10.2951 19.5045 10.1527 19.3425 10.0319C18.5311 9.34135 17.5665 8.85265 16.5297 8.60695C16.0066 8.4895 15.472 8.43347 14.936 8.4382H9.90182C9.76142 8.4382 9.74252 8.49422 9.74252 8.6164V11.9442C9.74252 12.0846 9.74252 12.1224 9.92072 12.1224H20.7391C20.7391 12.1224 20.8329 12.1035 20.8518 12.0475H20.8059H20.8066ZM20.8066 18.0098C20.6473 17.9922 20.4866 17.9922 20.3273 18.0098H9.93085C9.79044 18.0098 9.74319 18.0098 9.74319 18.1974V21.451C9.74319 21.6008 9.74319 21.6386 9.93085 21.6386H14.7308C14.9603 21.6562 15.1898 21.64 15.4146 21.592C16.1112 21.5421 16.7963 21.3909 17.4497 21.1418C17.6873 21.0595 17.9169 20.9521 18.1335 20.8232H18.199C19.3242 20.238 20.2382 19.3186 20.8147 18.19C20.8147 18.19 20.8801 18.0483 20.8066 18.0111V18.0098ZM7.85925 23.3255V23.2694V21.0851V20.3446V18.1414C7.85925 18.0192 7.85925 18.001 7.7094 18.001H5.67493C5.5622 18.001 5.51562 18.001 5.51562 17.8512V16.0698H7.6905C7.812 16.0698 7.85925 16.0698 7.85925 15.9105V14.1481C7.85925 14.0354 7.85925 14.0077 7.7094 14.0077H5.67493C5.5622 14.0077 5.51562 14.0077 5.51562 13.8578V12.2081C5.51562 12.1048 5.51563 12.0772 5.66548 12.0772H7.68105C7.82145 12.0772 7.85925 12.0772 7.85925 11.899V6.84586C7.85925 6.696 7.85925 6.6582 8.0469 6.6582H15.0778C15.5881 6.67845 16.095 6.73448 16.5965 6.82695C17.63 7.01798 18.6229 7.38721 19.5308 7.91439C20.1329 8.26877 20.6871 8.69672 21.1805 9.18948C21.5518 9.57491 21.8866 9.99206 22.1836 10.4362C22.4785 10.8864 22.7236 11.3677 22.916 11.8706C22.9396 12.0016 23.0651 12.09 23.1961 12.0677H24.8741C25.0895 12.0677 25.0895 12.0677 25.0989 12.2743V13.8119C25.0989 13.9618 25.0429 13.9996 24.8924 13.9996H23.5984C23.4674 13.9996 23.4296 13.9996 23.4391 14.1683C23.4904 14.7394 23.4904 15.3125 23.4391 15.8835C23.4391 16.0428 23.4391 16.0617 23.618 16.0617H25.0982C25.1637 16.1461 25.0982 16.2305 25.0982 16.3155C25.1077 16.4242 25.1077 16.5342 25.0982 16.6429V17.7776C25.0982 17.9369 25.0517 17.9841 24.9106 17.9841H23.1387C23.0152 17.9605 22.895 18.0395 22.8667 18.1623C22.4448 19.2592 21.7698 20.2427 20.8977 21.0311C20.5791 21.318 20.2443 21.588 19.8946 21.8371C19.5193 22.0531 19.1541 22.2779 18.7694 22.4561C18.0613 22.7747 17.3188 23.0096 16.5567 23.1587C15.8331 23.2883 15.0994 23.3471 14.3629 23.3369H7.85655V23.3275L7.85925 23.3255Z" fill="#FEFEFD"/>
</g>
</svg>
