<svg width="30" height="30" viewBox="0 0 30 30" fill="none" xmlns="http://www.w3.org/2000/svg">
<circle cx="15" cy="15" r="15" fill="white"/>
<path d="M15.0395 3.51562V11.8918C15.0395 11.9274 15.0039 11.963 14.9684 11.963C14.7195 12.0717 14.5061 12.1793 14.2572 12.287C13.9372 12.4303 13.5817 12.5745 13.2616 12.7544L12.0883 13.2928L11.1282 13.7246L9.95484 14.264C9.63482 14.4083 9.31481 14.5515 8.95924 14.7313C8.71034 14.839 8.42588 14.9833 8.17698 15.091C8.14143 15.091 8.14143 15.1265 8.10587 15.091H8.07031C8.17698 14.9111 8.28365 14.7669 8.39033 14.5881C8.95924 13.6169 9.56371 12.6467 10.1326 11.6755C10.7371 10.6341 11.3771 9.5908 11.9816 8.54847C12.5505 7.57827 13.1194 6.60807 13.6883 5.67343C14.115 4.95315 14.5417 4.27147 14.9328 3.55118C15.0039 3.55118 15.0039 3.51562 15.0395 3.51562C15.0395 3.51562 15.0039 3.51562 15.0395 3.51562Z" fill="#8C8C8C"/>
<path d="M21.9375 15.0893C21.4042 15.449 20.8353 15.772 20.3019 16.0951C18.5596 17.1384 16.8529 18.1452 15.1106 19.1875C15.075 19.1875 15.075 19.2231 15.0395 19.2231C15.0039 19.2231 15.0039 19.1875 15.0039 19.1875V11.9613C15.0039 11.9258 15.0395 11.9258 15.075 11.9258C15.2172 11.9969 15.3595 12.07 15.5373 12.1412C15.9639 12.3575 16.4262 12.5374 16.8529 12.7527C17.244 12.9326 17.5996 13.1124 17.9907 13.2556C18.3818 13.4354 18.7374 13.6152 19.1285 13.7951C19.4485 13.9393 19.8041 14.0826 20.1241 14.2624C20.4441 14.4066 20.7997 14.5499 21.1197 14.7297C21.3686 14.8374 21.6175 14.9817 21.902 15.0893C21.902 15.0538 21.902 15.0893 21.9375 15.0893Z" fill="#141414"/>
<path d="M15.0391 26.2727C15.0035 26.2727 15.0391 26.2727 15.0391 26.2727C15.0035 26.2727 15.0035 26.2727 14.968 26.2362C14.2568 25.2304 13.5813 24.2592 12.8701 23.2524L10.7367 20.2331C10.0611 19.2629 9.34996 18.2927 8.67438 17.2849L8.14103 16.5301C8.14103 16.4945 8.10547 16.4945 8.10547 16.459C8.14103 16.459 8.14103 16.4945 8.17658 16.4945C9.13662 17.0695 10.1322 17.6446 11.0923 18.2196C12.1945 18.9033 13.3324 19.5504 14.4346 20.2331C14.6124 20.3408 14.8257 20.4485 15.0035 20.5562C15.0391 20.5562 15.0391 20.5927 15.0391 20.6283V26.2727Z" fill="#8C8C8C"/>
<path d="M8.07031 14.7132C8.07031 14.6776 8.07031 14.6776 8.07031 14.7132C8.42588 14.5334 8.78145 14.3901 9.13702 14.2103L10.5237 13.5632C10.8793 13.3834 11.2349 13.2401 11.5905 13.0603C12.0883 12.8083 12.6216 12.593 13.1194 12.341C13.475 12.1968 13.8306 12.017 14.1861 11.8737C14.435 11.766 14.6839 11.6583 14.9328 11.5141C14.9684 11.5141 14.9684 11.4785 15.0039 11.4785V18.8114C14.9684 18.848 14.9684 18.8114 14.9328 18.8114C14.8261 18.7403 14.7195 18.7037 14.6484 18.6316L8.14143 14.7498C8.10587 14.7132 8.07031 14.7132 8.07031 14.7132ZM21.8309 16.044C21.8309 16.0796 21.8309 16.0796 21.7953 16.1152C19.733 19.0633 17.6707 21.9749 15.6084 24.9231C15.3951 25.2462 15.1817 25.5337 14.9684 25.8578V20.1412C15.4306 19.8537 15.8929 19.5662 16.3551 19.3153L21.7953 16.0796C21.7953 16.044 21.8309 16.044 21.8309 16.044Z" fill="#3C3C3B"/>
<path d="M15.0391 11.9269V3.55273L21.866 14.9838C21.9016 15.0194 21.9371 15.0549 21.9371 15.0915C21.7949 15.0204 21.6527 14.9472 21.4749 14.8761C21.2971 14.804 21.1193 14.6963 20.9415 14.6242C20.8349 14.5886 20.7282 14.5165 20.586 14.4799C20.4082 14.4088 20.1948 14.3001 20.017 14.229C19.9104 14.1924 19.8037 14.1213 19.697 14.0847L18.9503 13.7617C18.8081 13.6895 18.7014 13.654 18.5592 13.5818C18.3814 13.5097 18.2036 13.402 18.0259 13.3299C17.9192 13.2943 17.8125 13.2222 17.7058 13.1867L16.9591 12.8626C16.8169 12.7915 16.7102 12.7549 16.568 12.6828C16.3902 12.6117 16.2124 12.5029 16.0347 12.4308C15.928 12.3597 15.7858 12.3231 15.6791 12.252L15.0391 11.9279V11.9269Z" fill="#343434"/>
</svg>
