<svg width="30" height="30" viewBox="0 0 30 30" fill="none" xmlns="http://www.w3.org/2000/svg">
<g id="Vector">
<path d="M15 30C23.2843 30 30 23.2843 30 15C30 6.71573 23.2843 0 15 0C6.71573 0 0 6.71573 0 15C0 23.2843 6.71573 30 15 30Z" fill="#26A17B"/>
<path fill-rule="evenodd" clip-rule="evenodd" d="M16.8029 16.2965V16.2946C16.6998 16.3021 16.1683 16.334 14.9823 16.334C14.0354 16.334 13.3689 16.3058 13.1345 16.2946V16.2974C9.4895 16.1371 6.76888 15.5024 6.76888 14.743C6.76888 13.9846 9.4895 13.3499 13.1345 13.1868V15.6655C13.3726 15.6824 14.0551 15.7227 14.9983 15.7227C16.1298 15.7227 16.697 15.6758 16.8029 15.6665V13.1886C20.4404 13.3508 23.1545 13.9855 23.1545 14.743C23.1545 15.5024 20.4404 16.1352 16.8029 16.2965ZM16.8029 12.9308V10.7127H21.8786V7.33021H8.05888V10.7127H13.1345V12.9299C9.0095 13.1193 5.90732 13.9368 5.90732 14.9155C5.90732 15.8943 9.0095 16.7108 13.1345 16.9011V24.0093H16.8029V16.8993C20.9214 16.7099 24.0161 15.8933 24.0161 14.9155C24.0161 13.9377 20.9214 13.1211 16.8029 12.9308Z" fill="white"/>
</g>
</svg>
