<svg width="28" height="28" viewBox="0 0 28 28" fill="none" xmlns="http://www.w3.org/2000/svg">
<g id="Vector">
<path d="M13.64 27.28C21.1732 27.28 27.28 21.1732 27.28 13.64C27.28 6.10684 21.1732 0 13.64 0C6.10684 0 0 6.10684 0 13.64C0 21.1732 6.10684 27.28 13.64 27.28Z" fill="#E756CC"/>
<path d="M10.8864 14.0944C10.9674 14.2862 11.0484 14.4763 11.1337 14.6656C11.2112 14.8454 11.2939 15.0236 11.3732 15.2026L11.5556 15.6187C11.6187 15.761 11.6852 15.9034 11.75 16.0449L12.1532 16.952C12.2965 17.2674 12.4346 17.5845 12.5752 17.9008C12.7457 18.275 12.9043 18.6536 13.0782 19.0261C13.2896 19.4515 13.4431 19.8965 13.6349 20.3287C13.8267 19.8087 14.0364 19.3057 14.2683 18.8019C14.4124 18.4848 14.5496 18.1651 14.6945 17.8471C14.8079 17.5965 14.9153 17.3416 15.027 17.0884C15.1378 16.8394 15.2529 16.5914 15.3595 16.3416L15.4703 16.102C15.5325 15.9622 15.5939 15.8224 15.657 15.6834C15.7201 15.5411 15.7815 15.3979 15.8454 15.2563C15.9435 15.0407 16.0389 14.8233 16.1353 14.6059C16.2124 14.4373 16.2858 14.2671 16.3552 14.0952C14.5326 14.0927 12.7091 14.0918 10.8864 14.0944ZM17.466 11.6733H9.80375L10.6034 13.594H16.5854L17.4652 11.6724L17.466 11.6733ZM23.1283 9.87877C23.3159 10.3332 23.4642 10.802 23.5819 11.2786C23.0559 11.1917 22.5232 11.152 21.9902 11.1601C21.5836 11.1533 21.1701 11.1984 20.766 11.1601L20.7319 11.0211C20.8683 10.8361 21.0448 10.6955 21.2383 10.5727C21.8061 10.2147 22.4591 9.9555 23.1283 9.87877ZM10.1567 4.33752C11.3093 4.70665 12.5249 4.9087 13.6639 5.31449C13.8258 5.39121 14.0134 5.404 14.0202 5.61968C13.0714 5.77057 12.1473 5.77484 11.1916 5.84815C10.1695 5.91635 9.17631 6.01694 8.15075 5.88055C7.83107 5.85497 7.50711 5.77654 7.18743 5.78677C7.96515 5.1644 8.82633 4.65418 9.74578 4.27103C9.89582 4.24119 10.016 4.29745 10.1567 4.33752ZM17.94 14.6562C17.8693 14.8156 17.7968 14.9733 17.7243 15.131C17.6442 15.3083 17.5624 15.4874 17.4805 15.6638C17.4038 15.8318 17.3305 16.0006 17.2537 16.1677C17.1225 16.4507 16.9912 16.7337 16.8642 17.0193C16.7303 17.31 16.5999 17.6024 16.4635 17.8923L15.9733 18.9647C15.8505 19.2273 15.7329 19.4916 15.6127 19.755C15.4141 20.2008 15.206 20.6424 15.0031 21.0866C14.8139 21.5239 14.6093 21.9544 14.4132 22.3875C14.1882 22.882 13.9631 23.3773 13.7329 23.87C13.6426 23.87 13.5522 23.87 13.4618 23.8683C13.2078 23.3031 12.9452 22.7413 12.6937 22.1752C12.5147 21.7729 12.3272 21.3747 12.1481 20.9732C11.9853 20.6066 11.8157 20.2435 11.652 19.8769L11.2556 19.0039C11.0765 18.593 10.883 18.1881 10.7006 17.778C10.5386 17.4166 10.3724 17.0568 10.2121 16.6945C10.1482 16.5538 10.0851 16.4132 10.0203 16.2734C9.90861 16.0176 9.79011 15.7678 9.67502 15.5138C9.59318 15.3314 9.50793 15.1506 9.42609 14.9673L9.24195 14.5581C9.17375 14.4021 9.10299 14.2478 9.02883 14.0944C7.15588 14.0901 5.28294 14.0986 3.41 14.091V13.5709C5.20196 13.5675 6.99306 13.5752 8.78416 13.5675C8.72614 13.4159 8.66359 13.2661 8.59661 13.1183C8.49005 12.8932 8.39201 12.6664 8.28886 12.4405C8.19764 12.241 8.10983 12.0399 8.01606 11.8412C7.88818 11.5667 7.76798 11.288 7.63925 11.0126C7.4858 10.6818 7.34429 10.3442 7.18487 10.016C6.33237 10.1541 5.53614 10.4764 4.85754 11.0092L4.84305 11.0194C4.55065 11.23 4.29063 11.5053 4.04 11.7662C3.83802 11.9842 3.65332 12.2177 3.48758 12.4644C3.67759 10.8699 4.24706 9.34423 5.14825 8.01521C5.53528 8.35194 6.00672 8.56933 6.5293 8.54205C6.3085 8.05272 6.07406 7.56935 5.86861 7.07405C6.26673 6.60517 6.71344 6.17977 7.18743 5.78677C7.53269 6.61966 7.91546 7.43806 8.27607 8.26414C8.32296 8.39372 8.43975 8.38007 8.55228 8.42185C8.84469 8.48919 9.05014 8.66055 9.31441 8.79013C9.61535 8.94443 9.96828 9.02286 10.3008 9.08254C10.4406 9.11067 10.5821 9.12687 10.7245 9.14221L10.7611 9.22746C10.1234 9.40052 9.48747 9.41075 8.83361 9.44144C8.88817 9.66224 8.98194 9.86513 9.07742 10.0706C12.1021 10.0766 15.1268 10.0672 18.1514 10.0748C18.3509 9.67843 18.518 9.26667 18.7098 8.86685C18.1514 9.06037 17.5947 9.24281 17.0099 9.3417C16.9136 9.35363 16.8122 9.35363 16.715 9.35363C16.8522 9.26838 16.9946 9.19421 17.1404 9.12346C17.7772 8.82252 18.3987 8.47556 18.9758 8.07318C19.1429 7.95979 19.1821 7.79526 19.2639 7.62306C19.5402 7.01096 19.8104 6.39546 20.0883 5.78507C20.8905 6.43893 21.5972 7.20618 22.1684 8.06721C21.7933 7.91205 21.425 7.8771 21.0218 7.9129L20.3466 9.39029C20.2145 9.68611 20.0747 9.97851 19.9425 10.2743L19.5231 11.1925C19.4234 11.4158 19.3142 11.6358 19.2222 11.8617C19.1079 12.0774 19.0176 12.305 18.9119 12.5258C18.8096 12.7466 18.7158 12.9699 18.6109 13.1907C18.5495 13.3143 18.4916 13.4405 18.4345 13.5667C20.246 13.5752 22.0576 13.5675 23.8691 13.5709C23.8717 13.7457 23.8683 13.9196 23.8623 14.0927C21.9783 14.0961 20.0934 14.091 18.2094 14.0961C18.1105 14.2777 18.0253 14.4686 17.9392 14.6562H17.94Z" fill="white"/>
</g>
</svg>
