<svg width="28" height="28" viewBox="0 0 28 28" fill="none" xmlns="http://www.w3.org/2000/svg">
<circle cx="13.6381" cy="13.6381" r="13.6381" fill="white"/>
<g clip-path="url(#clip0_421_193)">
<path d="M19.9289 6.01758H22.5386L17.1076 11.3949C15.1408 13.3413 11.9521 13.3413 9.98387 11.3949L4.55078 6.01758H7.16259L11.2887 10.1024C11.8899 10.695 12.7001 11.0271 13.5442 11.0271C14.3882 11.0271 15.1984 10.695 15.7996 10.1024L19.9289 6.01758Z" fill="#23292F"/>
<path d="M7.12708 20.9699H4.51562L9.98186 15.5594C11.9487 13.613 15.1374 13.613 17.1056 15.5594L22.5718 20.9699H19.9622L15.8008 16.8519C15.1996 16.2594 14.3894 15.9272 13.5453 15.9272C12.7012 15.9272 11.8911 16.2594 11.2899 16.8519L7.12708 20.9699Z" fill="#23292F"/>
</g>
<defs>
<clipPath id="clip0_421_193">
<rect width="18.0562" height="18.0562" fill="white" transform="translate(4.51562 4.51367)"/>
</clipPath>
</defs>
</svg>
